<?xml version="1.0" encoding="UTF-8" standalone="no"?>
<!DOCTYPE svg PUBLIC "-//W3C//DTD SVG 1.1//EN" "http://www.w3.org/Graphics/SVG/1.1/DTD/svg11.dtd">
<svg width="100%" height="100%" viewBox="0 0 24 24" version="1.1" xmlns="http://www.w3.org/2000/svg" xmlns:xlink="http://www.w3.org/1999/xlink" xml:space="preserve" xmlns:serif="http://www.serif.com/">
    <path d="M12,0.53c-6.502,0 -11.779,5.138 -11.779,11.47c0,6.332 5.277,11.47 11.779,11.47c6.502,0 11.779,-5.138 11.779,-11.47c0,-6.332 -5.277,-11.47 -11.779,-11.47Z" style="fill:#0b24fb;"/>
    <rect x="10.822" y="17.735" width="2.356" height="2.294" style="fill:#fff;"/>
    <path d="M15.616,11.14l-1.06,1.055c-0.848,0.837 -1.378,1.526 -1.378,3.246l-2.356,0l0,-0.573c0,-1.262 0.53,-2.409 1.378,-3.247l1.461,-1.445c0.436,-0.413 0.695,-0.986 0.695,-1.617c0,-1.262 -1.06,-2.294 -2.356,-2.294c-1.296,0 -2.356,1.032 -2.356,2.294l-2.355,0c0,-2.535 2.108,-4.588 4.711,-4.588c2.603,0 4.711,2.053 4.711,4.588c0,1.009 -0.424,1.927 -1.095,2.581Z" style="fill:#fff;"/>
</svg>